<mxfile modified="2022-03-28T04:09:33.009Z" host="app.diagrams.net" agent="5.0 (Windows NT 10.0; Win64; x64) AppleWebKit/537.36 (KHTML, like Gecko) Chrome/99.0.4844.82 Safari/537.36" etag="6KrhL0wdbuSZh_5pHuuh" version="17.2.4" type="github">
  <diagram id="Ht1M8jgEwFfnCIfOTk4-" name="Page-1">
    <mxGraphModel dx="1422" dy="794" grid="1" gridSize="10" guides="1" tooltips="1" connect="1" arrows="1" fold="1" page="1" pageScale="1" pageWidth="1169" pageHeight="827" math="0" shadow="0">
      <root>
        <mxCell id="0" />
        <mxCell id="1" parent="0" />
        <mxCell id="BS2HCUqMPW_Un4Ivq9xh-9" value="AWS Cloud" style="points=[[0,0],[0.25,0],[0.5,0],[0.75,0],[1,0],[1,0.25],[1,0.5],[1,0.75],[1,1],[0.75,1],[0.5,1],[0.25,1],[0,1],[0,0.75],[0,0.5],[0,0.25]];outlineConnect=0;gradientColor=none;html=1;whiteSpace=wrap;fontSize=12;fontStyle=0;container=1;pointerEvents=0;collapsible=0;recursiveResize=0;shape=mxgraph.aws4.group;grIcon=mxgraph.aws4.group_aws_cloud_alt;strokeColor=#232F3E;fillColor=none;verticalAlign=top;align=left;spacingLeft=30;fontColor=#232F3E;dashed=0;" vertex="1" parent="1">
          <mxGeometry x="70" y="140" width="1000" height="660" as="geometry" />
        </mxCell>
        <mxCell id="BS2HCUqMPW_Un4Ivq9xh-10" value="Region" style="points=[[0,0],[0.25,0],[0.5,0],[0.75,0],[1,0],[1,0.25],[1,0.5],[1,0.75],[1,1],[0.75,1],[0.5,1],[0.25,1],[0,1],[0,0.75],[0,0.5],[0,0.25]];outlineConnect=0;gradientColor=none;html=1;whiteSpace=wrap;fontSize=12;fontStyle=0;container=1;pointerEvents=0;collapsible=0;recursiveResize=0;shape=mxgraph.aws4.group;grIcon=mxgraph.aws4.group_region;strokeColor=#147EBA;fillColor=none;verticalAlign=top;align=left;spacingLeft=30;fontColor=#147EBA;dashed=1;" vertex="1" parent="BS2HCUqMPW_Un4Ivq9xh-9">
          <mxGeometry x="140" y="50" width="750" height="490" as="geometry" />
        </mxCell>
        <mxCell id="BS2HCUqMPW_Un4Ivq9xh-13" value="VPC" style="points=[[0,0],[0.25,0],[0.5,0],[0.75,0],[1,0],[1,0.25],[1,0.5],[1,0.75],[1,1],[0.75,1],[0.5,1],[0.25,1],[0,1],[0,0.75],[0,0.5],[0,0.25]];outlineConnect=0;gradientColor=none;html=1;whiteSpace=wrap;fontSize=12;fontStyle=0;container=1;pointerEvents=0;collapsible=0;recursiveResize=0;shape=mxgraph.aws4.group;grIcon=mxgraph.aws4.group_vpc;strokeColor=#248814;fillColor=none;verticalAlign=top;align=left;spacingLeft=30;fontColor=#AAB7B8;dashed=0;" vertex="1" parent="BS2HCUqMPW_Un4Ivq9xh-10">
          <mxGeometry x="140" y="30" width="540" height="440" as="geometry" />
        </mxCell>
        <mxCell id="BS2HCUqMPW_Un4Ivq9xh-11" value="Availability Zone" style="fillColor=none;strokeColor=#147EBA;dashed=1;verticalAlign=top;fontStyle=0;fontColor=#147EBA;" vertex="1" parent="BS2HCUqMPW_Un4Ivq9xh-13">
          <mxGeometry x="50" y="-20" width="170" height="450" as="geometry" />
        </mxCell>
        <mxCell id="BS2HCUqMPW_Un4Ivq9xh-14" value="Private subnet" style="points=[[0,0],[0.25,0],[0.5,0],[0.75,0],[1,0],[1,0.25],[1,0.5],[1,0.75],[1,1],[0.75,1],[0.5,1],[0.25,1],[0,1],[0,0.75],[0,0.5],[0,0.25]];outlineConnect=0;gradientColor=none;html=1;whiteSpace=wrap;fontSize=12;fontStyle=0;container=1;pointerEvents=0;collapsible=0;recursiveResize=0;shape=mxgraph.aws4.group;grIcon=mxgraph.aws4.group_security_group;grStroke=0;strokeColor=#147EBA;fillColor=#E6F2F8;verticalAlign=top;align=left;spacingLeft=30;fontColor=#147EBA;dashed=0;" vertex="1" parent="BS2HCUqMPW_Un4Ivq9xh-13">
          <mxGeometry x="70" y="120" width="130" height="190" as="geometry" />
        </mxCell>
        <mxCell id="BS2HCUqMPW_Un4Ivq9xh-18" value="" style="group" vertex="1" connectable="0" parent="BS2HCUqMPW_Un4Ivq9xh-14">
          <mxGeometry x="10" y="60" width="100" height="74" as="geometry" />
        </mxCell>
        <mxCell id="BS2HCUqMPW_Un4Ivq9xh-17" value="" style="rounded=0;whiteSpace=wrap;html=1;" vertex="1" parent="BS2HCUqMPW_Un4Ivq9xh-18">
          <mxGeometry x="10" y="14" width="90" height="60" as="geometry" />
        </mxCell>
        <mxCell id="BS2HCUqMPW_Un4Ivq9xh-1" value="" style="sketch=0;points=[[0,0,0],[0.25,0,0],[0.5,0,0],[0.75,0,0],[1,0,0],[0,1,0],[0.25,1,0],[0.5,1,0],[0.75,1,0],[1,1,0],[0,0.25,0],[0,0.5,0],[0,0.75,0],[1,0.25,0],[1,0.5,0],[1,0.75,0]];outlineConnect=0;fontColor=#232F3E;gradientColor=#F78E04;gradientDirection=north;fillColor=#D05C17;strokeColor=#ffffff;dashed=0;verticalLabelPosition=bottom;verticalAlign=top;align=center;html=1;fontSize=12;fontStyle=0;aspect=fixed;shape=mxgraph.aws4.resourceIcon;resIcon=mxgraph.aws4.eks_cloud;" vertex="1" parent="BS2HCUqMPW_Un4Ivq9xh-18">
          <mxGeometry width="30" height="30" as="geometry" />
        </mxCell>
        <mxCell id="BS2HCUqMPW_Un4Ivq9xh-27" value="AMS" style="rounded=0;whiteSpace=wrap;html=1;" vertex="1" parent="BS2HCUqMPW_Un4Ivq9xh-18">
          <mxGeometry x="30" y="29" width="50" height="30" as="geometry" />
        </mxCell>
        <mxCell id="BS2HCUqMPW_Un4Ivq9xh-15" value="Private subnet" style="points=[[0,0],[0.25,0],[0.5,0],[0.75,0],[1,0],[1,0.25],[1,0.5],[1,0.75],[1,1],[0.75,1],[0.5,1],[0.25,1],[0,1],[0,0.75],[0,0.5],[0,0.25]];outlineConnect=0;gradientColor=none;html=1;whiteSpace=wrap;fontSize=12;fontStyle=0;container=1;pointerEvents=0;collapsible=0;recursiveResize=0;shape=mxgraph.aws4.group;grIcon=mxgraph.aws4.group_security_group;grStroke=0;strokeColor=#147EBA;fillColor=#E6F2F8;verticalAlign=top;align=left;spacingLeft=30;fontColor=#147EBA;dashed=0;" vertex="1" parent="BS2HCUqMPW_Un4Ivq9xh-13">
          <mxGeometry x="300" y="120" width="130" height="180" as="geometry" />
        </mxCell>
        <mxCell id="BS2HCUqMPW_Un4Ivq9xh-40" value="" style="sketch=0;outlineConnect=0;fontColor=#232F3E;gradientColor=none;fillColor=#4D27AA;strokeColor=none;dashed=0;verticalLabelPosition=bottom;verticalAlign=top;align=center;html=1;fontSize=12;fontStyle=0;aspect=fixed;pointerEvents=1;shape=mxgraph.aws4.endpoints;" vertex="1" parent="BS2HCUqMPW_Un4Ivq9xh-13">
          <mxGeometry x="460" y="332" width="78" height="78" as="geometry" />
        </mxCell>
        <mxCell id="BS2HCUqMPW_Un4Ivq9xh-12" value="Availability Zone" style="fillColor=none;strokeColor=#147EBA;dashed=1;verticalAlign=top;fontStyle=0;fontColor=#147EBA;" vertex="1" parent="BS2HCUqMPW_Un4Ivq9xh-13">
          <mxGeometry x="280" y="-20" width="170" height="460" as="geometry" />
        </mxCell>
        <mxCell id="BS2HCUqMPW_Un4Ivq9xh-32" value="" style="group" vertex="1" connectable="0" parent="BS2HCUqMPW_Un4Ivq9xh-13">
          <mxGeometry x="320" y="173" width="100" height="74" as="geometry" />
        </mxCell>
        <mxCell id="BS2HCUqMPW_Un4Ivq9xh-33" value="" style="rounded=0;whiteSpace=wrap;html=1;" vertex="1" parent="BS2HCUqMPW_Un4Ivq9xh-32">
          <mxGeometry x="10" y="14" width="90" height="60" as="geometry" />
        </mxCell>
        <mxCell id="BS2HCUqMPW_Un4Ivq9xh-34" value="" style="sketch=0;points=[[0,0,0],[0.25,0,0],[0.5,0,0],[0.75,0,0],[1,0,0],[0,1,0],[0.25,1,0],[0.5,1,0],[0.75,1,0],[1,1,0],[0,0.25,0],[0,0.5,0],[0,0.75,0],[1,0.25,0],[1,0.5,0],[1,0.75,0]];outlineConnect=0;fontColor=#232F3E;gradientColor=#F78E04;gradientDirection=north;fillColor=#D05C17;strokeColor=#ffffff;dashed=0;verticalLabelPosition=bottom;verticalAlign=top;align=center;html=1;fontSize=12;fontStyle=0;aspect=fixed;shape=mxgraph.aws4.resourceIcon;resIcon=mxgraph.aws4.eks_cloud;" vertex="1" parent="BS2HCUqMPW_Un4Ivq9xh-32">
          <mxGeometry width="30" height="30" as="geometry" />
        </mxCell>
        <mxCell id="BS2HCUqMPW_Un4Ivq9xh-35" value="AMS" style="rounded=0;whiteSpace=wrap;html=1;" vertex="1" parent="BS2HCUqMPW_Un4Ivq9xh-32">
          <mxGeometry x="30" y="29" width="50" height="30" as="geometry" />
        </mxCell>
        <mxCell id="BS2HCUqMPW_Un4Ivq9xh-42" style="edgeStyle=orthogonalEdgeStyle;rounded=0;orthogonalLoop=1;jettySize=auto;html=1;exitX=1;exitY=0.5;exitDx=0;exitDy=0;" edge="1" parent="BS2HCUqMPW_Un4Ivq9xh-13" source="BS2HCUqMPW_Un4Ivq9xh-35" target="BS2HCUqMPW_Un4Ivq9xh-40">
          <mxGeometry relative="1" as="geometry">
            <mxPoint x="420" y="217" as="sourcePoint" />
          </mxGeometry>
        </mxCell>
        <mxCell id="BS2HCUqMPW_Un4Ivq9xh-45" style="edgeStyle=orthogonalEdgeStyle;rounded=0;orthogonalLoop=1;jettySize=auto;html=1;entryX=0.5;entryY=-0.026;entryDx=0;entryDy=0;entryPerimeter=0;" edge="1" parent="BS2HCUqMPW_Un4Ivq9xh-13" source="BS2HCUqMPW_Un4Ivq9xh-27" target="BS2HCUqMPW_Un4Ivq9xh-40">
          <mxGeometry relative="1" as="geometry">
            <Array as="points">
              <mxPoint x="135" y="290" />
              <mxPoint x="499" y="290" />
            </Array>
          </mxGeometry>
        </mxCell>
        <mxCell id="BS2HCUqMPW_Un4Ivq9xh-16" value="" style="sketch=0;points=[[0,0,0],[0.25,0,0],[0.5,0,0],[0.75,0,0],[1,0,0],[0,1,0],[0.25,1,0],[0.5,1,0],[0.75,1,0],[1,1,0],[0,0.25,0],[0,0.5,0],[0,0.75,0],[1,0.25,0],[1,0.5,0],[1,0.75,0]];outlineConnect=0;fontColor=#232F3E;gradientColor=#F78E04;gradientDirection=north;fillColor=#D05C17;strokeColor=#ffffff;dashed=0;verticalLabelPosition=bottom;verticalAlign=top;align=center;html=1;fontSize=12;fontStyle=0;aspect=fixed;shape=mxgraph.aws4.resourceIcon;resIcon=mxgraph.aws4.elastic_load_balancing;" vertex="1" parent="BS2HCUqMPW_Un4Ivq9xh-10">
          <mxGeometry x="30" y="154" width="78" height="78" as="geometry" />
        </mxCell>
        <mxCell id="BS2HCUqMPW_Un4Ivq9xh-38" style="edgeStyle=orthogonalEdgeStyle;rounded=0;orthogonalLoop=1;jettySize=auto;html=1;entryX=0.5;entryY=0;entryDx=0;entryDy=0;" edge="1" parent="BS2HCUqMPW_Un4Ivq9xh-10" source="BS2HCUqMPW_Un4Ivq9xh-16" target="BS2HCUqMPW_Un4Ivq9xh-35">
          <mxGeometry relative="1" as="geometry" />
        </mxCell>
        <mxCell id="BS2HCUqMPW_Un4Ivq9xh-37" style="edgeStyle=orthogonalEdgeStyle;rounded=0;orthogonalLoop=1;jettySize=auto;html=1;entryX=0.5;entryY=0;entryDx=0;entryDy=0;" edge="1" parent="BS2HCUqMPW_Un4Ivq9xh-10" source="BS2HCUqMPW_Un4Ivq9xh-16" target="BS2HCUqMPW_Un4Ivq9xh-27">
          <mxGeometry relative="1" as="geometry">
            <mxPoint x="290" y="230" as="targetPoint" />
          </mxGeometry>
        </mxCell>
        <mxCell id="BS2HCUqMPW_Un4Ivq9xh-39" value="" style="sketch=0;points=[[0,0,0],[0.25,0,0],[0.5,0,0],[0.75,0,0],[1,0,0],[0,1,0],[0.25,1,0],[0.5,1,0],[0.75,1,0],[1,1,0],[0,0.25,0],[0,0.5,0],[0,0.75,0],[1,0.25,0],[1,0.5,0],[1,0.75,0]];outlineConnect=0;fontColor=#232F3E;gradientColor=#4D72F3;gradientDirection=north;fillColor=#3334B9;strokeColor=#ffffff;dashed=0;verticalLabelPosition=bottom;verticalAlign=top;align=center;html=1;fontSize=12;fontStyle=0;aspect=fixed;shape=mxgraph.aws4.resourceIcon;resIcon=mxgraph.aws4.dynamodb;" vertex="1" parent="BS2HCUqMPW_Un4Ivq9xh-9">
          <mxGeometry x="552" y="570" width="78" height="78" as="geometry" />
        </mxCell>
        <mxCell id="BS2HCUqMPW_Un4Ivq9xh-43" style="edgeStyle=orthogonalEdgeStyle;rounded=0;orthogonalLoop=1;jettySize=auto;html=1;" edge="1" parent="BS2HCUqMPW_Un4Ivq9xh-9" source="BS2HCUqMPW_Un4Ivq9xh-40" target="BS2HCUqMPW_Un4Ivq9xh-39">
          <mxGeometry relative="1" as="geometry">
            <Array as="points">
              <mxPoint x="780" y="550" />
              <mxPoint x="591" y="550" />
            </Array>
          </mxGeometry>
        </mxCell>
      </root>
    </mxGraphModel>
  </diagram>
</mxfile>
